<svg width="260" height="60" viewBox="0 0 260 60" fill="none" xmlns="http://www.w3.org/2000/svg">
<rect width="260" height="60" rx="11" fill="white"/>
<path d="M12.8864 53.1818C12.0455 53.1818 11.3201 52.9962 10.7102 52.625C10.1042 52.25 9.63636 51.7273 9.30682 51.0568C8.98106 50.3826 8.81818 49.5985 8.81818 48.7045C8.81818 47.8106 8.98106 47.0227 9.30682 46.3409C9.63636 45.6553 10.0947 45.1212 10.6818 44.7386C11.2727 44.3523 11.9621 44.1591 12.75 44.1591C13.2045 44.1591 13.6534 44.2348 14.0966 44.3864C14.5398 44.5379 14.9432 44.7841 15.3068 45.125C15.6705 45.4621 15.9602 45.9091 16.1761 46.4659C16.392 47.0227 16.5 47.7083 16.5 48.5227V49.0909H9.77273V47.9318H15.1364C15.1364 47.4394 15.0379 47 14.8409 46.6136C14.6477 46.2273 14.3712 45.9223 14.0114 45.6989C13.6553 45.4754 13.2348 45.3636 12.75 45.3636C12.2159 45.3636 11.7538 45.4962 11.3636 45.7614C10.9773 46.0227 10.6799 46.3636 10.4716 46.7841C10.2633 47.2045 10.1591 47.6553 10.1591 48.1364V48.9091C10.1591 49.5682 10.2727 50.1269 10.5 50.5852C10.7311 51.0398 11.0511 51.3864 11.4602 51.625C11.8693 51.8598 12.3447 51.9773 12.8864 51.9773C13.2386 51.9773 13.5568 51.928 13.8409 51.8295C14.1288 51.7273 14.3769 51.5758 14.5852 51.375C14.7936 51.1705 14.9545 50.9167 15.0682 50.6136L16.3636 50.9773C16.2273 51.4167 15.9981 51.803 15.6761 52.1364C15.3542 52.4659 14.9564 52.7235 14.483 52.9091C14.0095 53.0909 13.4773 53.1818 12.8864 53.1818ZM23.5398 47.3864V48.6364H18.4489V47.3864H23.5398ZM26.081 53V41.3636H27.4901V51.75H32.8991V53H26.081ZM38.5582 53.1818C37.7173 53.1818 36.992 52.9962 36.3821 52.625C35.776 52.25 35.3082 51.7273 34.9787 51.0568C34.6529 50.3826 34.4901 49.5985 34.4901 48.7045C34.4901 47.8106 34.6529 47.0227 34.9787 46.3409C35.3082 45.6553 35.7666 45.1212 36.3537 44.7386C36.9446 44.3523 37.634 44.1591 38.4219 44.1591C38.8764 44.1591 39.3253 44.2348 39.7685 44.3864C40.2116 44.5379 40.6151 44.7841 40.9787 45.125C41.3423 45.4621 41.6321 45.9091 41.848 46.4659C42.0639 47.0227 42.1719 47.7083 42.1719 48.5227V49.0909H35.4446V47.9318H40.8082C40.8082 47.4394 40.7098 47 40.5128 46.6136C40.3196 46.2273 40.0431 45.9223 39.6832 45.6989C39.3272 45.4754 38.9067 45.3636 38.4219 45.3636C37.8878 45.3636 37.4257 45.4962 37.0355 45.7614C36.6491 46.0227 36.3518 46.3636 36.1435 46.7841C35.9351 47.2045 35.831 47.6553 35.831 48.1364V48.9091C35.831 49.5682 35.9446 50.1269 36.1719 50.5852C36.4029 51.0398 36.723 51.3864 37.1321 51.625C37.5412 51.8598 38.0166 51.9773 38.5582 51.9773C38.9105 51.9773 39.2287 51.928 39.5128 51.8295C39.8007 51.7273 40.0488 51.5758 40.2571 51.375C40.4654 51.1705 40.6264 50.9167 40.7401 50.6136L42.0355 50.9773C41.8991 51.4167 41.67 51.803 41.348 52.1364C41.026 52.4659 40.6283 52.7235 40.1548 52.9091C39.6813 53.0909 39.1491 53.1818 38.5582 53.1818ZM46.7798 53.2045C46.2268 53.2045 45.7249 53.1004 45.2741 52.892C44.8234 52.6799 44.4654 52.375 44.2003 51.9773C43.9351 51.5758 43.8026 51.0909 43.8026 50.5227C43.8026 50.0227 43.901 49.6174 44.098 49.3068C44.295 48.9924 44.5582 48.7462 44.8878 48.5682C45.2173 48.3902 45.581 48.2576 45.9787 48.1705C46.3802 48.0795 46.7836 48.0076 47.1889 47.9545C47.7192 47.8864 48.1491 47.8352 48.4787 47.8011C48.812 47.7633 49.0545 47.7008 49.206 47.6136C49.3613 47.5265 49.4389 47.375 49.4389 47.1591V47.1136C49.4389 46.553 49.2855 46.1174 48.9787 45.8068C48.6757 45.4962 48.2154 45.3409 47.598 45.3409C46.9579 45.3409 46.456 45.4811 46.0923 45.7614C45.7287 46.0417 45.473 46.3409 45.3253 46.6591L44.0526 46.2045C44.2798 45.6742 44.5829 45.2614 44.9616 44.9659C45.3442 44.6667 45.7609 44.4583 46.2116 44.3409C46.6662 44.2197 47.1132 44.1591 47.5526 44.1591C47.8329 44.1591 48.1548 44.1932 48.5185 44.2614C48.8859 44.3258 49.2401 44.4602 49.581 44.6648C49.9257 44.8693 50.2116 45.178 50.4389 45.5909C50.6662 46.0038 50.7798 46.5568 50.7798 47.25V53H49.4389V51.8182H49.3707C49.2798 52.0076 49.1283 52.2102 48.9162 52.4261C48.7041 52.642 48.4219 52.8258 48.0696 52.9773C47.7173 53.1288 47.2874 53.2045 46.7798 53.2045ZM46.9844 52C47.5147 52 47.9616 51.8958 48.3253 51.6875C48.6927 51.4792 48.9692 51.2102 49.1548 50.8807C49.3442 50.5511 49.4389 50.2045 49.4389 49.8409V48.6136C49.3821 48.6818 49.2571 48.7443 49.0639 48.8011C48.8745 48.8542 48.6548 48.9015 48.4048 48.9432C48.1586 48.9811 47.9181 49.0152 47.6832 49.0455C47.4522 49.072 47.2647 49.0947 47.1207 49.1136C46.7723 49.1591 46.4465 49.233 46.1435 49.3352C45.8442 49.4337 45.6018 49.5833 45.4162 49.7841C45.2344 49.9811 45.1435 50.25 45.1435 50.5909C45.1435 51.0568 45.3158 51.4091 45.6605 51.6477C46.009 51.8826 46.4503 52 46.9844 52ZM53.2273 53V44.2727H54.5227V45.5909H54.6136C54.7727 45.1591 55.0606 44.8087 55.4773 44.5398C55.8939 44.2708 56.3636 44.1364 56.8864 44.1364C56.9848 44.1364 57.108 44.1383 57.2557 44.142C57.4034 44.1458 57.5152 44.1515 57.5909 44.1591V45.5227C57.5455 45.5114 57.4413 45.4943 57.2784 45.4716C57.1193 45.4451 56.9508 45.4318 56.7727 45.4318C56.3485 45.4318 55.9697 45.5208 55.6364 45.6989C55.3068 45.8731 55.0455 46.1155 54.8523 46.4261C54.6629 46.733 54.5682 47.0833 54.5682 47.4773V53H53.2273ZM60.5213 47.75V53H59.1804V44.2727H60.4759V45.6364H60.5895C60.794 45.1932 61.1046 44.8371 61.5213 44.5682C61.938 44.2955 62.4759 44.1591 63.1349 44.1591C63.7259 44.1591 64.2429 44.2803 64.6861 44.5227C65.1293 44.7614 65.474 45.125 65.7202 45.6136C65.9664 46.0985 66.0895 46.7121 66.0895 47.4545V53H64.7486V47.5455C64.7486 46.8598 64.5705 46.3258 64.2145 45.9432C63.8584 45.5568 63.3698 45.3636 62.7486 45.3636C62.3205 45.3636 61.938 45.4564 61.6009 45.642C61.2675 45.8277 61.0043 46.0985 60.8111 46.4545C60.6179 46.8106 60.5213 47.2424 60.5213 47.75ZM68.5398 53V44.2727H69.8807V53H68.5398ZM69.2216 42.8182C68.9602 42.8182 68.7348 42.7292 68.5455 42.5511C68.3598 42.3731 68.267 42.1591 68.267 41.9091C68.267 41.6591 68.3598 41.4451 68.5455 41.267C68.7348 41.089 68.9602 41 69.2216 41C69.483 41 69.7064 41.089 69.892 41.267C70.0814 41.4451 70.1761 41.6591 70.1761 41.9091C70.1761 42.1591 70.0814 42.3731 69.892 42.5511C69.7064 42.7292 69.483 42.8182 69.2216 42.8182ZM73.6776 47.75V53H72.3366V44.2727H73.6321V45.6364H73.7457C73.9503 45.1932 74.2609 44.8371 74.6776 44.5682C75.0942 44.2955 75.6321 44.1591 76.2912 44.1591C76.8821 44.1591 77.3991 44.2803 77.8423 44.5227C78.2855 44.7614 78.6302 45.125 78.8764 45.6136C79.1226 46.0985 79.2457 46.7121 79.2457 47.4545V53H77.9048V47.5455C77.9048 46.8598 77.7268 46.3258 77.3707 45.9432C77.0147 45.5568 76.526 45.3636 75.9048 45.3636C75.4768 45.3636 75.0942 45.4564 74.7571 45.642C74.4238 45.8277 74.1605 46.0985 73.9673 46.4545C73.7741 46.8106 73.6776 47.2424 73.6776 47.75ZM85.2188 56.4545C84.571 56.4545 84.0142 56.3712 83.5483 56.2045C83.0824 56.0417 82.6941 55.8258 82.3835 55.5568C82.0767 55.2917 81.8324 55.0076 81.6506 54.7045L82.7188 53.9545C82.84 54.1136 82.9934 54.2955 83.179 54.5C83.3646 54.7083 83.6184 54.8883 83.9403 55.0398C84.2661 55.1951 84.6922 55.2727 85.2188 55.2727C85.9233 55.2727 86.5047 55.1023 86.9631 54.7614C87.4214 54.4205 87.6506 53.8864 87.6506 53.1591V51.3864H87.5369C87.4384 51.5455 87.2983 51.7424 87.1165 51.9773C86.9384 52.2083 86.6809 52.4148 86.3438 52.5966C86.0104 52.7746 85.5597 52.8636 84.9915 52.8636C84.2869 52.8636 83.6544 52.697 83.0938 52.3636C82.5369 52.0303 82.0956 51.5455 81.7699 50.9091C81.4479 50.2727 81.2869 49.5 81.2869 48.5909C81.2869 47.697 81.4441 46.9186 81.7585 46.2557C82.0729 45.589 82.5104 45.0739 83.071 44.7102C83.6316 44.3428 84.2794 44.1591 85.0142 44.1591C85.5824 44.1591 86.0331 44.2538 86.3665 44.4432C86.7036 44.6288 86.9612 44.8409 87.1392 45.0795C87.321 45.3144 87.4612 45.5076 87.5597 45.6591H87.696V44.2727H88.9915V53.25C88.9915 54 88.821 54.6098 88.4801 55.0795C88.143 55.553 87.6884 55.8996 87.1165 56.1193C86.5483 56.3428 85.9157 56.4545 85.2188 56.4545ZM85.1733 51.6591C85.7112 51.6591 86.1657 51.536 86.5369 51.2898C86.9081 51.0436 87.1903 50.6894 87.3835 50.2273C87.5767 49.7652 87.6733 49.2121 87.6733 48.5682C87.6733 47.9394 87.5786 47.3845 87.3892 46.9034C87.1998 46.4223 86.9195 46.0455 86.5483 45.7727C86.1771 45.5 85.7188 45.3636 85.1733 45.3636C84.6051 45.3636 84.1316 45.5076 83.7528 45.7955C83.3778 46.0833 83.0956 46.4697 82.9062 46.9545C82.7206 47.4394 82.6278 47.9773 82.6278 48.5682C82.6278 49.1742 82.7225 49.7102 82.9119 50.1761C83.1051 50.6383 83.3892 51.0019 83.7642 51.267C84.143 51.5284 84.6127 51.6591 85.1733 51.6591ZM96.1278 41.3636H97.8097L101.764 51.0227H101.901L105.855 41.3636H107.537V53H106.219V44.1591H106.105L102.469 53H101.196L97.5597 44.1591H97.446V53H96.1278V41.3636ZM112.749 53.2045C112.196 53.2045 111.694 53.1004 111.243 52.892C110.792 52.6799 110.434 52.375 110.169 51.9773C109.904 51.5758 109.771 51.0909 109.771 50.5227C109.771 50.0227 109.87 49.6174 110.067 49.3068C110.264 48.9924 110.527 48.7462 110.857 48.5682C111.186 48.3902 111.55 48.2576 111.947 48.1705C112.349 48.0795 112.752 48.0076 113.158 47.9545C113.688 47.8864 114.118 47.8352 114.447 47.8011C114.781 47.7633 115.023 47.7008 115.175 47.6136C115.33 47.5265 115.408 47.375 115.408 47.1591V47.1136C115.408 46.553 115.254 46.1174 114.947 45.8068C114.644 45.4962 114.184 45.3409 113.567 45.3409C112.927 45.3409 112.425 45.4811 112.061 45.7614C111.697 46.0417 111.442 46.3409 111.294 46.6591L110.021 46.2045C110.249 45.6742 110.552 45.2614 110.93 44.9659C111.313 44.6667 111.73 44.4583 112.18 44.3409C112.635 44.2197 113.082 44.1591 113.521 44.1591C113.802 44.1591 114.124 44.1932 114.487 44.2614C114.855 44.3258 115.209 44.4602 115.55 44.6648C115.894 44.8693 116.18 45.178 116.408 45.5909C116.635 46.0038 116.749 46.5568 116.749 47.25V53H115.408V51.8182H115.339C115.249 52.0076 115.097 52.2102 114.885 52.4261C114.673 52.642 114.391 52.8258 114.038 52.9773C113.686 53.1288 113.256 53.2045 112.749 53.2045ZM112.953 52C113.483 52 113.93 51.8958 114.294 51.6875C114.661 51.4792 114.938 51.2102 115.124 50.8807C115.313 50.5511 115.408 50.2045 115.408 49.8409V48.6136C115.351 48.6818 115.226 48.7443 115.033 48.8011C114.843 48.8542 114.624 48.9015 114.374 48.9432C114.127 48.9811 113.887 49.0152 113.652 49.0455C113.421 49.072 113.233 49.0947 113.089 49.1136C112.741 49.1591 112.415 49.233 112.112 49.3352C111.813 49.4337 111.571 49.5833 111.385 49.7841C111.203 49.9811 111.112 50.25 111.112 50.5909C111.112 51.0568 111.285 51.4091 111.629 51.6477C111.978 51.8826 112.419 52 112.953 52ZM120.537 47.75V53H119.196V44.2727H120.491V45.6364H120.605C120.81 45.1932 121.12 44.8371 121.537 44.5682C121.954 44.2955 122.491 44.1591 123.151 44.1591C123.741 44.1591 124.259 44.2803 124.702 44.5227C125.145 44.7614 125.49 45.125 125.736 45.6136C125.982 46.0985 126.105 46.7121 126.105 47.4545V53H124.764V47.5455C124.764 46.8598 124.586 46.3258 124.23 45.9432C123.874 45.5568 123.385 45.3636 122.764 45.3636C122.336 45.3636 121.954 45.4564 121.616 45.642C121.283 45.8277 121.02 46.0985 120.827 46.4545C120.634 46.8106 120.537 47.2424 120.537 47.75ZM131.124 53.2045C130.571 53.2045 130.069 53.1004 129.618 52.892C129.167 52.6799 128.809 52.375 128.544 51.9773C128.279 51.5758 128.146 51.0909 128.146 50.5227C128.146 50.0227 128.245 49.6174 128.442 49.3068C128.639 48.9924 128.902 48.7462 129.232 48.5682C129.561 48.3902 129.925 48.2576 130.322 48.1705C130.724 48.0795 131.127 48.0076 131.533 47.9545C132.063 47.8864 132.493 47.8352 132.822 47.8011C133.156 47.7633 133.398 47.7008 133.55 47.6136C133.705 47.5265 133.783 47.375 133.783 47.1591V47.1136C133.783 46.553 133.629 46.1174 133.322 45.8068C133.019 45.4962 132.559 45.3409 131.942 45.3409C131.302 45.3409 130.8 45.4811 130.436 45.7614C130.072 46.0417 129.817 46.3409 129.669 46.6591L128.396 46.2045C128.624 45.6742 128.927 45.2614 129.305 44.9659C129.688 44.6667 130.105 44.4583 130.555 44.3409C131.01 44.2197 131.457 44.1591 131.896 44.1591C132.177 44.1591 132.499 44.1932 132.862 44.2614C133.23 44.3258 133.584 44.4602 133.925 44.6648C134.269 44.8693 134.555 45.178 134.783 45.5909C135.01 46.0038 135.124 46.5568 135.124 47.25V53H133.783V51.8182H133.714C133.624 52.0076 133.472 52.2102 133.26 52.4261C133.048 52.642 132.766 52.8258 132.413 52.9773C132.061 53.1288 131.631 53.2045 131.124 53.2045ZM131.328 52C131.858 52 132.305 51.8958 132.669 51.6875C133.036 51.4792 133.313 51.2102 133.499 50.8807C133.688 50.5511 133.783 50.2045 133.783 49.8409V48.6136C133.726 48.6818 133.601 48.7443 133.408 48.8011C133.218 48.8542 132.999 48.9015 132.749 48.9432C132.502 48.9811 132.262 49.0152 132.027 49.0455C131.796 49.072 131.608 49.0947 131.464 49.1136C131.116 49.1591 130.79 49.233 130.487 49.3352C130.188 49.4337 129.946 49.5833 129.76 49.7841C129.578 49.9811 129.487 50.25 129.487 50.5909C129.487 51.0568 129.66 51.4091 130.004 51.6477C130.353 51.8826 130.794 52 131.328 52ZM141.094 56.4545C140.446 56.4545 139.889 56.3712 139.423 56.2045C138.957 56.0417 138.569 55.8258 138.259 55.5568C137.952 55.2917 137.707 55.0076 137.526 54.7045L138.594 53.9545C138.715 54.1136 138.868 54.2955 139.054 54.5C139.24 54.7083 139.493 54.8883 139.815 55.0398C140.141 55.1951 140.567 55.2727 141.094 55.2727C141.798 55.2727 142.38 55.1023 142.838 54.7614C143.296 54.4205 143.526 53.8864 143.526 53.1591V51.3864H143.412C143.313 51.5455 143.173 51.7424 142.991 51.9773C142.813 52.2083 142.556 52.4148 142.219 52.5966C141.885 52.7746 141.435 52.8636 140.866 52.8636C140.162 52.8636 139.529 52.697 138.969 52.3636C138.412 52.0303 137.971 51.5455 137.645 50.9091C137.323 50.2727 137.162 49.5 137.162 48.5909C137.162 47.697 137.319 46.9186 137.634 46.2557C137.948 45.589 138.385 45.0739 138.946 44.7102C139.507 44.3428 140.154 44.1591 140.889 44.1591C141.457 44.1591 141.908 44.2538 142.241 44.4432C142.579 44.6288 142.836 44.8409 143.014 45.0795C143.196 45.3144 143.336 45.5076 143.435 45.6591H143.571V44.2727H144.866V53.25C144.866 54 144.696 54.6098 144.355 55.0795C144.018 55.553 143.563 55.8996 142.991 56.1193C142.423 56.3428 141.791 56.4545 141.094 56.4545ZM141.048 51.6591C141.586 51.6591 142.041 51.536 142.412 51.2898C142.783 51.0436 143.065 50.6894 143.259 50.2273C143.452 49.7652 143.548 49.2121 143.548 48.5682C143.548 47.9394 143.454 47.3845 143.264 46.9034C143.075 46.4223 142.795 46.0455 142.423 45.7727C142.052 45.5 141.594 45.3636 141.048 45.3636C140.48 45.3636 140.007 45.5076 139.628 45.7955C139.253 46.0833 138.971 46.4697 138.781 46.9545C138.596 47.4394 138.503 47.9773 138.503 48.5682C138.503 49.1742 138.598 49.7102 138.787 50.1761C138.98 50.6383 139.264 51.0019 139.639 51.267C140.018 51.5284 140.488 51.6591 141.048 51.6591ZM150.98 53.1818C150.139 53.1818 149.414 52.9962 148.804 52.625C148.198 52.25 147.73 51.7273 147.401 51.0568C147.075 50.3826 146.912 49.5985 146.912 48.7045C146.912 47.8106 147.075 47.0227 147.401 46.3409C147.73 45.6553 148.188 45.1212 148.776 44.7386C149.366 44.3523 150.056 44.1591 150.844 44.1591C151.298 44.1591 151.747 44.2348 152.19 44.3864C152.634 44.5379 153.037 44.7841 153.401 45.125C153.764 45.4621 154.054 45.9091 154.27 46.4659C154.486 47.0227 154.594 47.7083 154.594 48.5227V49.0909H147.866V47.9318H153.23C153.23 47.4394 153.132 47 152.935 46.6136C152.741 46.2273 152.465 45.9223 152.105 45.6989C151.749 45.4754 151.329 45.3636 150.844 45.3636C150.31 45.3636 149.848 45.4962 149.457 45.7614C149.071 46.0227 148.774 46.3636 148.565 46.7841C148.357 47.2045 148.253 47.6553 148.253 48.1364V48.9091C148.253 49.5682 148.366 50.1269 148.594 50.5852C148.825 51.0398 149.145 51.3864 149.554 51.625C149.963 51.8598 150.438 51.9773 150.98 51.9773C151.332 51.9773 151.651 51.928 151.935 51.8295C152.223 51.7273 152.471 51.5758 152.679 51.375C152.887 51.1705 153.048 50.9167 153.162 50.6136L154.457 50.9773C154.321 51.4167 154.092 51.803 153.77 52.1364C153.448 52.4659 153.05 52.7235 152.577 52.9091C152.103 53.0909 151.571 53.1818 150.98 53.1818ZM156.634 53V44.2727H157.929V45.6364H158.043C158.224 45.1705 158.518 44.8087 158.923 44.5511C159.329 44.2898 159.815 44.1591 160.384 44.1591C160.959 44.1591 161.438 44.2898 161.821 44.5511C162.207 44.8087 162.509 45.1705 162.724 45.6364H162.815C163.039 45.1856 163.374 44.8277 163.821 44.5625C164.268 44.2936 164.804 44.1591 165.429 44.1591C166.209 44.1591 166.848 44.4034 167.344 44.892C167.84 45.3769 168.088 46.1326 168.088 47.1591V53H166.747V47.1591C166.747 46.5152 166.571 46.0549 166.219 45.7784C165.866 45.5019 165.452 45.3636 164.974 45.3636C164.361 45.3636 163.885 45.5492 163.548 45.9205C163.211 46.2879 163.043 46.7538 163.043 47.3182V53H161.679V47.0227C161.679 46.5265 161.518 46.1269 161.196 45.8239C160.874 45.517 160.459 45.3636 159.952 45.3636C159.603 45.3636 159.277 45.4564 158.974 45.642C158.675 45.8277 158.433 46.0852 158.247 46.4148C158.065 46.7405 157.974 47.1174 157.974 47.5455V53H156.634ZM174.199 53.1818C173.358 53.1818 172.633 52.9962 172.023 52.625C171.417 52.25 170.949 51.7273 170.619 51.0568C170.294 50.3826 170.131 49.5985 170.131 48.7045C170.131 47.8106 170.294 47.0227 170.619 46.3409C170.949 45.6553 171.407 45.1212 171.994 44.7386C172.585 44.3523 173.275 44.1591 174.062 44.1591C174.517 44.1591 174.966 44.2348 175.409 44.3864C175.852 44.5379 176.256 44.7841 176.619 45.125C176.983 45.4621 177.273 45.9091 177.489 46.4659C177.705 47.0227 177.812 47.7083 177.812 48.5227V49.0909H171.085V47.9318H176.449C176.449 47.4394 176.35 47 176.153 46.6136C175.96 46.2273 175.684 45.9223 175.324 45.6989C174.968 45.4754 174.547 45.3636 174.062 45.3636C173.528 45.3636 173.066 45.4962 172.676 45.7614C172.29 46.0227 171.992 46.3636 171.784 46.7841C171.576 47.2045 171.472 47.6553 171.472 48.1364V48.9091C171.472 49.5682 171.585 50.1269 171.812 50.5852C172.044 51.0398 172.364 51.3864 172.773 51.625C173.182 51.8598 173.657 51.9773 174.199 51.9773C174.551 51.9773 174.869 51.928 175.153 51.8295C175.441 51.7273 175.689 51.5758 175.898 51.375C176.106 51.1705 176.267 50.9167 176.381 50.6136L177.676 50.9773C177.54 51.4167 177.311 51.803 176.989 52.1364C176.667 52.4659 176.269 52.7235 175.795 52.9091C175.322 53.0909 174.79 53.1818 174.199 53.1818ZM181.193 47.75V53H179.852V44.2727H181.148V45.6364H181.261C181.466 45.1932 181.777 44.8371 182.193 44.5682C182.61 44.2955 183.148 44.1591 183.807 44.1591C184.398 44.1591 184.915 44.2803 185.358 44.5227C185.801 44.7614 186.146 45.125 186.392 45.6136C186.638 46.0985 186.761 46.7121 186.761 47.4545V53H185.42V47.5455C185.42 46.8598 185.242 46.3258 184.886 45.9432C184.53 45.5568 184.042 45.3636 183.42 45.3636C182.992 45.3636 182.61 45.4564 182.273 45.642C181.939 45.8277 181.676 46.0985 181.483 46.4545C181.29 46.8106 181.193 47.2424 181.193 47.75ZM193.007 44.2727V45.4091H188.484V44.2727H193.007ZM189.803 42.1818H191.143V50.5C191.143 50.8788 191.198 51.1629 191.308 51.3523C191.422 51.5379 191.566 51.6629 191.74 51.7273C191.918 51.7879 192.106 51.8182 192.303 51.8182C192.45 51.8182 192.571 51.8106 192.666 51.7955C192.761 51.7765 192.837 51.7614 192.893 51.75L193.166 52.9545C193.075 52.9886 192.948 53.0227 192.786 53.0568C192.623 53.0947 192.416 53.1136 192.166 53.1136C191.787 53.1136 191.416 53.0322 191.053 52.8693C190.693 52.7064 190.393 52.4583 190.155 52.125C189.92 51.7917 189.803 51.3712 189.803 50.8636V42.1818ZM206.07 44.2727C206.001 43.697 205.725 43.25 205.24 42.9318C204.755 42.6136 204.161 42.4545 203.456 42.4545C202.941 42.4545 202.49 42.5379 202.104 42.7045C201.721 42.8712 201.422 43.1004 201.206 43.392C200.994 43.6837 200.888 44.0152 200.888 44.3864C200.888 44.697 200.962 44.964 201.109 45.1875C201.261 45.4072 201.454 45.5909 201.689 45.7386C201.924 45.8826 202.17 46.0019 202.428 46.0966C202.685 46.1875 202.922 46.2614 203.138 46.3182L204.32 46.6364C204.623 46.7159 204.96 46.8258 205.331 46.9659C205.706 47.1061 206.064 47.2973 206.405 47.5398C206.75 47.7784 207.034 48.0852 207.257 48.4602C207.481 48.8352 207.592 49.2955 207.592 49.8409C207.592 50.4697 207.428 51.0379 207.098 51.5455C206.772 52.053 206.295 52.4564 205.666 52.7557C205.041 53.0549 204.282 53.2045 203.388 53.2045C202.554 53.2045 201.833 53.0701 201.223 52.8011C200.617 52.5322 200.14 52.1572 199.791 51.6761C199.446 51.1951 199.251 50.6364 199.206 50H200.661C200.698 50.4394 200.846 50.803 201.104 51.0909C201.365 51.375 201.695 51.5871 202.092 51.7273C202.494 51.8636 202.926 51.9318 203.388 51.9318C203.926 51.9318 204.409 51.8447 204.837 51.6705C205.265 51.4924 205.604 51.2462 205.854 50.9318C206.104 50.6136 206.229 50.2424 206.229 49.8182C206.229 49.4318 206.121 49.1174 205.905 48.875C205.689 48.6326 205.405 48.4356 205.053 48.2841C204.7 48.1326 204.32 48 203.911 47.8864L202.479 47.4773C201.57 47.2159 200.85 46.8428 200.32 46.358C199.789 45.8731 199.524 45.2386 199.524 44.4545C199.524 43.803 199.7 43.2348 200.053 42.75C200.409 42.2614 200.886 41.8826 201.484 41.6136C202.087 41.3409 202.759 41.2045 203.501 41.2045C204.251 41.2045 204.918 41.339 205.501 41.608C206.085 41.8731 206.547 42.2367 206.888 42.6989C207.232 43.161 207.414 43.6856 207.433 44.2727H206.07ZM210.591 56.2727C210.364 56.2727 210.161 56.2538 209.983 56.2159C209.805 56.1818 209.682 56.1477 209.614 56.1136L209.955 54.9318C210.28 55.0152 210.568 55.0455 210.818 55.0227C211.068 55 211.29 54.8883 211.483 54.6875C211.68 54.4905 211.86 54.1705 212.023 53.7273L212.273 53.0455L209.045 44.2727H210.5L212.909 51.2273H213L215.409 44.2727H216.864L213.159 54.2727C212.992 54.7235 212.786 55.0966 212.54 55.392C212.294 55.6913 212.008 55.9129 211.682 56.0568C211.36 56.2008 210.996 56.2727 210.591 56.2727ZM224.815 46.2273L223.611 46.5682C223.535 46.3674 223.423 46.1723 223.276 45.983C223.132 45.7898 222.935 45.6307 222.685 45.5057C222.435 45.3807 222.115 45.3182 221.724 45.3182C221.19 45.3182 220.745 45.4413 220.389 45.6875C220.037 45.9299 219.861 46.2386 219.861 46.6136C219.861 46.947 219.982 47.2102 220.224 47.4034C220.467 47.5966 220.846 47.7576 221.361 47.8864L222.656 48.2045C223.437 48.3939 224.018 48.6837 224.401 49.0739C224.783 49.4602 224.974 49.9583 224.974 50.5682C224.974 51.0682 224.83 51.5152 224.543 51.9091C224.259 52.303 223.861 52.6136 223.349 52.8409C222.838 53.0682 222.243 53.1818 221.565 53.1818C220.675 53.1818 219.938 52.9886 219.355 52.6023C218.772 52.2159 218.402 51.6515 218.247 50.9091L219.52 50.5909C219.641 51.0606 219.87 51.4129 220.207 51.6477C220.548 51.8826 220.993 52 221.543 52C222.168 52 222.664 51.8674 223.031 51.6023C223.402 51.3333 223.588 51.0114 223.588 50.6364C223.588 50.3333 223.482 50.0795 223.27 49.875C223.058 49.6667 222.732 49.5114 222.293 49.4091L220.838 49.0682C220.039 48.8788 219.452 48.5852 219.077 48.1875C218.705 47.786 218.52 47.2841 218.52 46.6818C218.52 46.1894 218.658 45.7538 218.935 45.375C219.215 44.9962 219.596 44.6989 220.077 44.483C220.562 44.267 221.111 44.1591 221.724 44.1591C222.588 44.1591 223.266 44.3485 223.759 44.7273C224.255 45.1061 224.607 45.6061 224.815 46.2273ZM230.788 44.2727V45.4091H226.266V44.2727H230.788ZM227.584 42.1818H228.925V50.5C228.925 50.8788 228.98 51.1629 229.089 51.3523C229.203 51.5379 229.347 51.6629 229.521 51.7273C229.699 51.7879 229.887 51.8182 230.084 51.8182C230.232 51.8182 230.353 51.8106 230.447 51.7955C230.542 51.7765 230.618 51.7614 230.675 51.75L230.947 52.9545C230.857 52.9886 230.73 53.0227 230.567 53.0568C230.404 53.0947 230.197 53.1136 229.947 53.1136C229.569 53.1136 229.197 53.0322 228.834 52.8693C228.474 52.7064 228.175 52.4583 227.936 52.125C227.701 51.7917 227.584 51.3712 227.584 50.8636V42.1818ZM236.371 53.1818C235.53 53.1818 234.804 52.9962 234.195 52.625C233.589 52.25 233.121 51.7273 232.791 51.0568C232.465 50.3826 232.303 49.5985 232.303 48.7045C232.303 47.8106 232.465 47.0227 232.791 46.3409C233.121 45.6553 233.579 45.1212 234.166 44.7386C234.757 44.3523 235.446 44.1591 236.234 44.1591C236.689 44.1591 237.138 44.2348 237.581 44.3864C238.024 44.5379 238.428 44.7841 238.791 45.125C239.155 45.4621 239.445 45.9091 239.661 46.4659C239.876 47.0227 239.984 47.7083 239.984 48.5227V49.0909H233.257V47.9318H238.621C238.621 47.4394 238.522 47 238.325 46.6136C238.132 46.2273 237.856 45.9223 237.496 45.6989C237.14 45.4754 236.719 45.3636 236.234 45.3636C235.7 45.3636 235.238 45.4962 234.848 45.7614C234.462 46.0227 234.164 46.3636 233.956 46.7841C233.748 47.2045 233.643 47.6553 233.643 48.1364V48.9091C233.643 49.5682 233.757 50.1269 233.984 50.5852C234.215 51.0398 234.536 51.3864 234.945 51.625C235.354 51.8598 235.829 51.9773 236.371 51.9773C236.723 51.9773 237.041 51.928 237.325 51.8295C237.613 51.7273 237.861 51.5758 238.07 51.375C238.278 51.1705 238.439 50.9167 238.553 50.6136L239.848 50.9773C239.712 51.4167 239.482 51.803 239.161 52.1364C238.839 52.4659 238.441 52.7235 237.967 52.9091C237.494 53.0909 236.962 53.1818 236.371 53.1818ZM242.024 53V44.2727H243.32V45.6364H243.433C243.615 45.1705 243.909 44.8087 244.314 44.5511C244.719 44.2898 245.206 44.1591 245.774 44.1591C246.35 44.1591 246.829 44.2898 247.212 44.5511C247.598 44.8087 247.899 45.1705 248.115 45.6364H248.206C248.429 45.1856 248.765 44.8277 249.212 44.5625C249.659 44.2936 250.195 44.1591 250.82 44.1591C251.6 44.1591 252.238 44.4034 252.734 44.892C253.231 45.3769 253.479 46.1326 253.479 47.1591V53H252.138V47.1591C252.138 46.5152 251.962 46.0549 251.609 45.7784C251.257 45.5019 250.842 45.3636 250.365 45.3636C249.751 45.3636 249.276 45.5492 248.939 45.9205C248.602 46.2879 248.433 46.7538 248.433 47.3182V53H247.07V47.0227C247.07 46.5265 246.909 46.1269 246.587 45.8239C246.265 45.517 245.85 45.3636 245.342 45.3636C244.994 45.3636 244.668 45.4564 244.365 45.642C244.066 45.8277 243.823 46.0852 243.638 46.4148C243.456 46.7405 243.365 47.1174 243.365 47.5455V53H242.024Z" fill="#0f172a"/>
<path d="M103.125 32V14.5455H107.864V28.1818H114.92V32H103.125ZM116.836 14.5455H122.734L126.79 24.4318H126.995L131.052 14.5455H136.95V32H132.313V21.9091H132.177L128.29 31.8636H125.495L121.609 21.8409H121.472V32H116.836V14.5455ZM148.604 20C148.559 19.4318 148.346 18.9886 147.965 18.6705C147.59 18.3523 147.019 18.1932 146.252 18.1932C145.763 18.1932 145.363 18.2528 145.05 18.3722C144.744 18.4858 144.516 18.642 144.369 18.8409C144.221 19.0398 144.144 19.267 144.138 19.5227C144.127 19.733 144.164 19.9233 144.249 20.0938C144.34 20.2585 144.482 20.4091 144.675 20.5455C144.869 20.6761 145.116 20.7955 145.417 20.9034C145.718 21.0114 146.076 21.108 146.491 21.1932L147.923 21.5C148.888 21.7045 149.715 21.9744 150.403 22.3097C151.09 22.6449 151.653 23.0398 152.09 23.4943C152.528 23.9432 152.849 24.4489 153.053 25.0114C153.263 25.5739 153.371 26.1875 153.377 26.8523C153.371 28 153.085 28.9716 152.516 29.767C151.948 30.5625 151.136 31.1676 150.079 31.5824C149.028 31.9972 147.763 32.2045 146.286 32.2045C144.769 32.2045 143.445 31.9801 142.315 31.5312C141.19 31.0824 140.315 30.392 139.69 29.4602C139.07 28.5227 138.758 27.3239 138.752 25.8636H143.252C143.281 26.3977 143.414 26.8466 143.653 27.2102C143.891 27.5739 144.227 27.8494 144.658 28.0369C145.096 28.2244 145.616 28.3182 146.218 28.3182C146.724 28.3182 147.147 28.2557 147.488 28.1307C147.829 28.0057 148.087 27.8324 148.263 27.6108C148.44 27.3892 148.531 27.1364 148.536 26.8523C148.531 26.5852 148.442 26.3523 148.272 26.1534C148.107 25.9489 147.835 25.767 147.454 25.608C147.073 25.4432 146.559 25.2898 145.911 25.1477L144.173 24.7727C142.627 24.4375 141.408 23.8778 140.516 23.0938C139.63 22.304 139.19 21.2273 139.195 19.8636C139.19 18.7557 139.485 17.7869 140.082 16.9574C140.684 16.1222 141.516 15.4716 142.579 15.0057C143.647 14.5398 144.871 14.3068 146.252 14.3068C147.661 14.3068 148.88 14.5426 149.908 15.0142C150.937 15.4858 151.729 16.1506 152.286 17.0085C152.849 17.8608 153.133 18.858 153.138 20H148.604Z" fill="#0f172a"/>
<path d="M176.188 29.8757V31.25H175.75V29.875V29.8743C175.749 28.8891 175.297 27.9614 174.524 27.2891C173.753 26.6187 172.721 26.2511 171.657 26.25H171.656H167.344H167.343C166.279 26.2511 165.247 26.6187 164.476 27.2891C163.703 27.9614 163.251 28.8891 163.25 29.8743V29.875V31.25H162.812V29.8753C162.814 28.8722 163.272 27.8938 164.116 27.1602C164.962 26.4246 166.122 26.0012 167.344 26H171.656C172.878 26.0012 174.038 26.4246 174.884 27.1602C175.728 27.8939 176.186 28.8724 176.188 29.8757ZM161.414 17.3104C161.451 17.2779 161.515 17.25 161.594 17.25C161.673 17.25 161.737 17.2779 161.774 17.3104C161.809 17.3409 161.812 17.3662 161.812 17.375V22.5H161.375V17.375C161.375 17.3662 161.378 17.3409 161.414 17.3104Z" fill="#0f172a" stroke="#0f172a"/>
<path d="M164.969 15.5V15H164.469H161.375V14.75H177.625V15H174.531H174.031V15.5V19.875C174.031 20.8784 173.573 21.8574 172.73 22.5913C171.883 23.3271 170.723 23.75 169.5 23.75C168.277 23.75 167.117 23.3271 166.27 22.5913C165.427 21.8574 164.969 20.8784 164.969 19.875V15.5ZM165.906 15H165.406V15.5V17.375V17.875H165.906H173.094H173.594V17.375V15.5V15H173.094H165.906ZM165.906 18.125H165.406V18.625V19.875C165.406 20.8608 165.857 21.7893 166.631 22.462C167.402 23.1328 168.435 23.5 169.5 23.5C170.565 23.5 171.598 23.1328 172.369 22.462C173.143 21.7893 173.594 20.8608 173.594 19.875V18.625V18.125H173.094H165.906Z" fill="white" stroke="black"/>
</svg>
